<svg height="512" viewBox="0 0 64 64" width="512" xmlns="http://www.w3.org/2000/svg"><g id="Line"><g fill="#c4a2fc"><circle cx="46" cy="30" r="17"/><path d="m24.811 48.89a3.211 3.211 0 0 0 -4.438 0l-6.456 6.468a3.151 3.151 0 0 0 0 4.445l2.272 2.276a3.132 3.132 0 0 0 4.438 0l6.456-6.467a3.152 3.152 0 0 0 0-4.446z"/><path d="m30.558 41.028-5.352 5.352a4.82 4.82 0 0 1 1.329.912l2.173 2.173a4.962 4.962 0 0 1 .921 1.321l5.343-5.344a19.144 19.144 0 0 1 -4.414-4.414z"/></g><path d="m23 1a22 22 0 1 0 22 22 22.025 22.025 0 0 0 -22-22zm0 42a20 20 0 1 1 20-20 20.023 20.023 0 0 1 -20 20z" fill="#151a6a"/><path d="m28.786 13.685-18.629 6.209a2 2 0 0 0 .213 3.852l8.96 1.925 1.924 8.96a2 2 0 0 0 3.852.212l6.21-18.63a2 2 0 0 0 -2.53-2.528zm-5.577 20.526-1.924-8.96a2 2 0 0 0 -1.535-1.536l-8.975-1.915.015-.007 18.629-6.209z" fill="#151a6a"/></g></svg>